<svg xmlns="http://www.w3.org/2000/svg" viewBox="0 0 820 400" width="820" height="400">
  <title>Sound transmission through the ear</title>
  <text x="140.0" y="26.0" fill="#e6e9ee" font-size="15" text-anchor="middle" font-family="Segoe UI, Helvetica, Arial, sans-serif" font-weight="bold">External ear</text>
  <text x="400.0" y="26.0" fill="#e6e9ee" font-size="15" text-anchor="middle" font-family="Segoe UI, Helvetica, Arial, sans-serif" font-weight="bold">Middle ear (air)</text>
  <text x="660.0" y="26.0" fill="#e6e9ee" font-size="15" text-anchor="middle" font-family="Segoe UI, Helvetica, Arial, sans-serif" font-weight="bold">Inner ear (fluid)</text>
  <line x1="270.0" y1="40.0" x2="270.0" y2="330.0" stroke="#9aa4b1" stroke-width="1" stroke-linecap="round" stroke-dasharray="4 4"/>
  <line x1="530.0" y1="40.0" x2="530.0" y2="330.0" stroke="#9aa4b1" stroke-width="1" stroke-linecap="round" stroke-dasharray="4 4"/>
  <path d="M 40 90 Q 10 170 50 250 Q 70 280 60 300" stroke="#f2b24c" stroke-width="4" fill="none" stroke-linejoin="round" stroke-linecap="round"/>
  <rect x="70.0" y="160.0" width="190.0" height="44.0" rx="0" stroke="#9aa4b1" stroke-width="2" fill="#ffffff" fill-opacity="0.04"/>
  <path d="M 90 170 Q 98 182 90 194" stroke="#e6e9ee" stroke-width="1.5" fill="none" stroke-linejoin="round" stroke-linecap="round"/>
  <path d="M 110 170 Q 118 182 110 194" stroke="#e6e9ee" stroke-width="1.5" fill="none" stroke-linejoin="round" stroke-linecap="round"/>
  <path d="M 130 170 Q 138 182 130 194" stroke="#e6e9ee" stroke-width="1.5" fill="none" stroke-linejoin="round" stroke-linecap="round"/>
  <path d="M 150 170 Q 158 182 150 194" stroke="#e6e9ee" stroke-width="1.5" fill="none" stroke-linejoin="round" stroke-linecap="round"/>
  <text x="165.0" y="150.0" fill="#e6e9ee" font-size="13" text-anchor="middle" font-family="Segoe UI, Helvetica, Arial, sans-serif">External acoustic meatus</text>
  <text x="50.0" y="330.0" fill="#f2b24c" font-size="13" text-anchor="middle" font-family="Segoe UI, Helvetica, Arial, sans-serif" font-weight="bold">Auricle</text>
  <path d="M 262 120 Q 250 182 262 244" stroke="#5ab4f0" stroke-width="5" fill="none" stroke-linejoin="round" stroke-linecap="round"/>
  <text x="262.0" y="270.0" fill="#5ab4f0" font-size="13" text-anchor="middle" font-family="Segoe UI, Helvetica, Arial, sans-serif" font-weight="bold">Tympanic membrane</text>
  <text x="262.0" y="286.0" fill="#9aa4b1" font-size="12" text-anchor="middle" font-family="Segoe UI, Helvetica, Arial, sans-serif">(large area)</text>
  <line x1="262.0" y1="182.0" x2="330.0" y2="150.0" stroke="#e6e9ee" stroke-width="6" stroke-linecap="round"/>
  <circle cx="335.0" cy="145.0" r="12.0" stroke="#e6e9ee" stroke-width="2" fill="#e6e9ee" fill-opacity="0.3"/>
  <line x1="345.0" y1="150.0" x2="410.0" y2="185.0" stroke="#e6e9ee" stroke-width="6" stroke-linecap="round"/>
  <line x1="410.0" y1="185.0" x2="470.0" y2="185.0" stroke="#e6e9ee" stroke-width="5" stroke-linecap="round"/>
  <line x1="470.0" y1="165.0" x2="470.0" y2="205.0" stroke="#e6e9ee" stroke-width="5" stroke-linecap="round"/>
  <line x1="470.0" y1="165.0" x2="520.0" y2="170.0" stroke="#e6e9ee" stroke-width="3" stroke-linecap="round"/>
  <line x1="470.0" y1="205.0" x2="520.0" y2="200.0" stroke="#e6e9ee" stroke-width="3" stroke-linecap="round"/>
  <text x="300.0" y="125.0" fill="#e6e9ee" font-size="13" text-anchor="middle" font-family="Segoe UI, Helvetica, Arial, sans-serif" font-weight="bold">Malleus</text>
  <text x="380.0" y="145.0" fill="#e6e9ee" font-size="13" text-anchor="middle" font-family="Segoe UI, Helvetica, Arial, sans-serif" font-weight="bold">Incus</text>
  <text x="470.0" y="230.0" fill="#e6e9ee" font-size="13" text-anchor="middle" font-family="Segoe UI, Helvetica, Arial, sans-serif" font-weight="bold">Stapes</text>
  <rect x="520.0" y="160.0" width="10.0" height="50.0" rx="0" stroke="#7ccf86" stroke-width="2" fill="#7ccf86" fill-opacity="0.5"/>
  <text x="560.0" y="120.0" fill="#7ccf86" font-size="13" text-anchor="middle" font-family="Segoe UI, Helvetica, Arial, sans-serif" font-weight="bold">Oval window</text>
  <text x="560.0" y="136.0" fill="#9aa4b1" font-size="12" text-anchor="middle" font-family="Segoe UI, Helvetica, Arial, sans-serif">(small area)</text>
  <rect x="520.0" y="262.0" width="10.0" height="30.0" rx="0" stroke="#f28cc0" stroke-width="2" fill="#f28cc0" fill-opacity="0.4"/>
  <text x="575.0" y="310.0" fill="#f28cc0" font-size="13" text-anchor="middle" font-family="Segoe UI, Helvetica, Arial, sans-serif" font-weight="bold">Round window bulges out</text>
  <path d="M 540 185 Q 560 165 580 185 Q 600 205 620 185 Q 640 165 660 185 Q 680 205 700 185 Q 720 165 740 185" stroke="#4fd1c5" stroke-width="3" fill="none" stroke-linejoin="round" stroke-linecap="round"/>
  <line x1="760.0" y1="200.0" x2="760.0" y2="265.0" stroke="#4fd1c5" stroke-width="2" stroke-linecap="round"/>
  <path d="M 760.0 265.0 L 756.5 256.7 L 763.5 256.7 Z" stroke="#4fd1c5" stroke-width="1" fill="#4fd1c5" stroke-linejoin="round" stroke-linecap="round"/>
  <path d="M 760 275 L 545 277" stroke="#4fd1c5" stroke-width="2" fill="none" stroke-linejoin="round" stroke-linecap="round" stroke-dasharray="5 4"/>
  <path d="M 545.0 277.0 L 553.3 273.5 L 553.3 280.5 Z" stroke="#4fd1c5" stroke-width="1" fill="#4fd1c5" stroke-linejoin="round" stroke-linecap="round"/>
  <text x="620.0" y="225.0" fill="#4fd1c5" font-size="13" text-anchor="start" font-family="Segoe UI, Helvetica, Arial, sans-serif">perilymph wave</text>
  <text x="620.0" y="241.9" fill="#4fd1c5" font-size="13" text-anchor="start" font-family="Segoe UI, Helvetica, Arial, sans-serif">-&gt; cochlea</text>
  <text x="330.0" y="90.0" fill="#b98ae0" font-size="12" text-anchor="middle" font-family="Segoe UI, Helvetica, Arial, sans-serif">tensor tympani (on malleus)</text>
  <text x="470.0" y="260.0" fill="#b98ae0" font-size="12" text-anchor="middle" font-family="Segoe UI, Helvetica, Arial, sans-serif">stapedius (on stapes)</text>
  <path d="M 400 330 L 470 385" stroke="#9aa4b1" stroke-width="8" fill="none" stroke-linejoin="round" stroke-linecap="round"/>
  <text x="380.0" y="360.0" fill="#9aa4b1" font-size="12" text-anchor="end" font-family="Segoe UI, Helvetica, Arial, sans-serif">Auditory tube -&gt; nasopharynx</text>
  <text x="410.0" y="395.0" fill="#9aa4b1" font-size="12" text-anchor="start" font-family="Segoe UI, Helvetica, Arial, sans-serif"></text>
  <rect x="560.0" y="330.0" width="250.0" height="60.0" rx="6" stroke="#f2b24c" stroke-width="1.5" fill="#f2b24c" fill-opacity="0.08"/>
  <text x="685.0" y="352.0" fill="#f2b24c" font-size="13" text-anchor="middle" font-family="Segoe UI, Helvetica, Arial, sans-serif">Big eardrum -&gt; small oval window</text>
  <text x="685.0" y="368.9" fill="#f2b24c" font-size="13" text-anchor="middle" font-family="Segoe UI, Helvetica, Arial, sans-serif">amplifies pressure about 20x</text>
</svg>
