<svg xmlns="http://www.w3.org/2000/svg" viewBox="0 0 820 520" width="820" height="520">
  <title>Referred pain sites</title>
  <circle cx="250.0" cy="60.0" r="34.0" stroke="#9aa4b1" stroke-width="2" fill="none" fill-opacity="1"/>
  <path d="M 232 94 L 232 110 L 160 125 L 130 280 L 150 285 L 175 170 L 180 300 L 190 500 L 235 500 L 250 330 L 265 500 L 310 500 L 320 300 L 325 170 L 350 285 L 370 280 L 340 125 L 268 110 L 268 94" stroke="#9aa4b1" stroke-width="2" fill="none" stroke-linejoin="round" stroke-linecap="round"/>
  <path d="M 325 170 L 350 285 L 370 280 L 340 140" stroke="#ef7a7a" stroke-width="2" fill="#ef7a7a" fill-opacity="0.2" stroke-linejoin="round" stroke-linecap="round"/>
  <ellipse cx="290.0" cy="108.0" rx="26.0" ry="10.0" stroke="#5ab4f0" stroke-width="2" fill="#5ab4f0" fill-opacity="0.3"/>
  <line x1="316.0" y1="108.0" x2="420.0" y2="66.0" stroke="#5ab4f0" stroke-width="1" stroke-linecap="round" stroke-opacity="0.55"/>
  <text x="428.0" y="70.0" fill="#5ab4f0" font-size="13" text-anchor="start" font-family="Segoe UI, Helvetica, Arial, sans-serif">Lungs &amp; diaphragm: base of neck, shoulder</text>
  <ellipse cx="188.0" cy="135.0" rx="22.0" ry="16.0" stroke="#f2b24c" stroke-width="2" fill="#f2b24c" fill-opacity="0.3"/>
  <line x1="166.0" y1="135.0" x2="420.0" y2="108.0" stroke="#f2b24c" stroke-width="1" stroke-linecap="round" stroke-opacity="0.55"/>
  <text x="428.0" y="112.0" fill="#f2b24c" font-size="13" text-anchor="start" font-family="Segoe UI, Helvetica, Arial, sans-serif">Liver &amp; gallbladder: right shoulder, right upper abdomen</text>
  <ellipse cx="295.0" cy="152.0" rx="28.0" ry="24.0" stroke="#ef7a7a" stroke-width="2" fill="#ef7a7a" fill-opacity="0.3"/>
  <line x1="323.0" y1="152.0" x2="420.0" y2="150.0" stroke="#ef7a7a" stroke-width="1" stroke-linecap="round" stroke-opacity="0.55"/>
  <text x="428.0" y="154.0" fill="#ef7a7a" font-size="13" text-anchor="start" font-family="Segoe UI, Helvetica, Arial, sans-serif">Heart: left chest, left shoulder, medial left arm</text>
  <ellipse cx="250.0" cy="165.0" rx="9.0" ry="26.0" stroke="#b98ae0" stroke-width="2" fill="#b98ae0" fill-opacity="0.3"/>
  <line x1="259.0" y1="165.0" x2="420.0" y2="192.0" stroke="#b98ae0" stroke-width="1" stroke-linecap="round" stroke-opacity="0.55"/>
  <text x="428.0" y="196.0" fill="#b98ae0" font-size="13" text-anchor="start" font-family="Segoe UI, Helvetica, Arial, sans-serif">Oesophagus: behind the sternum</text>
  <ellipse cx="250.0" cy="215.0" rx="22.0" ry="14.0" stroke="#4fd1c5" stroke-width="2" fill="#4fd1c5" fill-opacity="0.3"/>
  <line x1="272.0" y1="215.0" x2="420.0" y2="234.0" stroke="#4fd1c5" stroke-width="1" stroke-linecap="round" stroke-opacity="0.55"/>
  <text x="428.0" y="238.0" fill="#4fd1c5" font-size="13" text-anchor="start" font-family="Segoe UI, Helvetica, Arial, sans-serif">Stomach: epigastric region</text>
  <ellipse cx="250.0" cy="262.0" rx="26.0" ry="16.0" stroke="#7ccf86" stroke-width="2" fill="#7ccf86" fill-opacity="0.3"/>
  <line x1="276.0" y1="262.0" x2="420.0" y2="276.0" stroke="#7ccf86" stroke-width="1" stroke-linecap="round" stroke-opacity="0.55"/>
  <text x="428.0" y="280.0" fill="#7ccf86" font-size="13" text-anchor="start" font-family="Segoe UI, Helvetica, Arial, sans-serif">Colon: around the umbilicus, lower abdomen</text>
  <ellipse cx="305.0" cy="285.0" rx="11.0" ry="30.0" stroke="#e0a070" stroke-width="2" fill="#e0a070" fill-opacity="0.3"/>
  <line x1="316.0" y1="285.0" x2="420.0" y2="318.0" stroke="#e0a070" stroke-width="1" stroke-linecap="round" stroke-opacity="0.55"/>
  <text x="428.0" y="322.0" fill="#e0a070" font-size="13" text-anchor="start" font-family="Segoe UI, Helvetica, Arial, sans-serif">Ureter: flank to groin</text>
  <ellipse cx="212.0" cy="300.0" rx="17.0" ry="13.0" stroke="#f28cc0" stroke-width="2" fill="#f28cc0" fill-opacity="0.3"/>
  <line x1="195.0" y1="300.0" x2="420.0" y2="360.0" stroke="#f28cc0" stroke-width="1" stroke-linecap="round" stroke-opacity="0.55"/>
  <text x="428.0" y="364.0" fill="#f28cc0" font-size="13" text-anchor="start" font-family="Segoe UI, Helvetica, Arial, sans-serif">Appendix: periumbilical, then right lower quadrant</text>
  <ellipse cx="250.0" cy="325.0" rx="22.0" ry="10.0" stroke="#c7c77a" stroke-width="2" fill="#c7c77a" fill-opacity="0.3"/>
  <line x1="272.0" y1="325.0" x2="420.0" y2="402.0" stroke="#c7c77a" stroke-width="1" stroke-linecap="round" stroke-opacity="0.55"/>
  <text x="428.0" y="406.0" fill="#c7c77a" font-size="13" text-anchor="start" font-family="Segoe UI, Helvetica, Arial, sans-serif">Urinary bladder: suprapubic</text>
  <text x="428.0" y="448.0" fill="#d0b0a0" font-size="13" text-anchor="start" font-family="Segoe UI, Helvetica, Arial, sans-serif">Kidney: lower back / flank (posterior, not shown)</text>
  <text x="250.0" y="515.0" fill="#9aa4b1" font-size="12" text-anchor="middle" font-family="Segoe UI, Helvetica, Arial, sans-serif">front view: the patient's left is on the right of the picture</text>
</svg>
