<svg xmlns="http://www.w3.org/2000/svg" viewBox="0 0 940 660" width="940" height="660" font-family="Segoe UI, Helvetica, Arial, sans-serif"><title>Fetal circulation and its three shunts</title><defs><marker id="ah-58d68d" viewBox="0 0 10 10" refX="8" refY="5" markerWidth="7" markerHeight="7" orient="auto-start-reverse"><path d="M0,0 L10,5 L0,10 z" fill="#58d68d"/></marker><marker id="ah-5dade2" viewBox="0 0 10 10" refX="8" refY="5" markerWidth="7" markerHeight="7" orient="auto-start-reverse"><path d="M0,0 L10,5 L0,10 z" fill="#5dade2"/></marker><marker id="ah-aab4c0" viewBox="0 0 10 10" refX="8" refY="5" markerWidth="7" markerHeight="7" orient="auto-start-reverse"><path d="M0,0 L10,5 L0,10 z" fill="#aab4c0"/></marker><marker id="ah-bb8fce" viewBox="0 0 10 10" refX="8" refY="5" markerWidth="7" markerHeight="7" orient="auto-start-reverse"><path d="M0,0 L10,5 L0,10 z" fill="#bb8fce"/></marker><marker id="ah-c9d1dc" viewBox="0 0 10 10" refX="8" refY="5" markerWidth="7" markerHeight="7" orient="auto-start-reverse"><path d="M0,0 L10,5 L0,10 z" fill="#c9d1dc"/></marker><marker id="ah-e8ecf1" viewBox="0 0 10 10" refX="8" refY="5" markerWidth="7" markerHeight="7" orient="auto-start-reverse"><path d="M0,0 L10,5 L0,10 z" fill="#e8ecf1"/></marker><marker id="ah-f1948a" viewBox="0 0 10 10" refX="8" refY="5" markerWidth="7" markerHeight="7" orient="auto-start-reverse"><path d="M0,0 L10,5 L0,10 z" fill="#f1948a"/></marker><marker id="ah-f4d03f" viewBox="0 0 10 10" refX="8" refY="5" markerWidth="7" markerHeight="7" orient="auto-start-reverse"><path d="M0,0 L10,5 L0,10 z" fill="#f4d03f"/></marker><marker id="ah-f5b041" viewBox="0 0 10 10" refX="8" refY="5" markerWidth="7" markerHeight="7" orient="auto-start-reverse"><path d="M0,0 L10,5 L0,10 z" fill="#f5b041"/></marker><marker id="ah-ff6b6b" viewBox="0 0 10 10" refX="8" refY="5" markerWidth="7" markerHeight="7" orient="auto-start-reverse"><path d="M0,0 L10,5 L0,10 z" fill="#ff6b6b"/></marker></defs>
<rect x="40.0" y="540.0" width="170.0" height="60.0" rx="8" stroke="#58d68d" fill="#58d68d" fill-opacity="0.12" stroke-width="2" opacity="1.0"/>
<text x="125.0" y="575.8" font-size="16" stroke="none" fill="#e8ecf1" text-anchor="middle" font-weight="bold" opacity="1.0">Placenta</text>
<rect x="300.0" y="470.0" width="150.0" height="50.0" rx="8" stroke="#c9d1dc" fill="#ffffff" fill-opacity="0.04" stroke-width="2" opacity="1.0"/>
<text x="375.0" y="500.0" font-size="14" stroke="none" fill="#e8ecf1" text-anchor="middle" font-weight="normal" opacity="1.0">Liver</text>
<rect x="520.0" y="440.0" width="150.0" height="44.0" rx="8" stroke="#bb8fce" fill="#ffffff" fill-opacity="0.04" stroke-width="2" opacity="1.0"/>
<text x="595.0" y="466.7" font-size="13" stroke="none" fill="#e8ecf1" text-anchor="middle" font-weight="normal" opacity="1.0">Inferior vena cava</text>
<rect x="520.0" y="300.0" width="150.0" height="50.0" rx="8" stroke="#bb8fce" fill="#ffffff" fill-opacity="0.04" stroke-width="2" opacity="1.0"/>
<text x="595.0" y="330.0" font-size="14" stroke="none" fill="#e8ecf1" text-anchor="middle" font-weight="bold" opacity="1.0">Right atrium</text>
<rect x="760.0" y="300.0" width="150.0" height="50.0" rx="8" stroke="#bb8fce" fill="#ffffff" fill-opacity="0.04" stroke-width="2" opacity="1.0"/>
<text x="835.0" y="330.0" font-size="14" stroke="none" fill="#e8ecf1" text-anchor="middle" font-weight="bold" opacity="1.0">Left atrium</text>
<rect x="300.0" y="300.0" width="150.0" height="50.0" rx="8" stroke="#bb8fce" fill="#ffffff" fill-opacity="0.04" stroke-width="2" opacity="1.0"/>
<text x="375.0" y="329.7" font-size="13" stroke="none" fill="#e8ecf1" text-anchor="middle" font-weight="normal" opacity="1.0">Right ventricle</text>
<rect x="760.0" y="390.0" width="150.0" height="44.0" rx="8" stroke="#bb8fce" fill="#ffffff" fill-opacity="0.04" stroke-width="2" opacity="1.0"/>
<text x="835.0" y="416.7" font-size="13" stroke="none" fill="#e8ecf1" text-anchor="middle" font-weight="normal" opacity="1.0">Left ventricle</text>
<rect x="300.0" y="160.0" width="150.0" height="44.0" rx="8" stroke="#bb8fce" fill="#ffffff" fill-opacity="0.04" stroke-width="2" opacity="1.0"/>
<text x="375.0" y="186.7" font-size="13" stroke="none" fill="#e8ecf1" text-anchor="middle" font-weight="normal" opacity="1.0">Pulmonary trunk</text>
<rect x="40.0" y="160.0" width="150.0" height="44.0" rx="8" stroke="#c9d1dc" fill="#ffffff" fill-opacity="0.04" stroke-width="2" opacity="1.0"/>
<text x="115.0" y="179.0" font-size="12" stroke="none" fill="#e8ecf1" text-anchor="middle" font-weight="normal" opacity="1.0">Lungs</text><text x="115.0" y="193.6" font-size="12" stroke="none" fill="#e8ecf1" text-anchor="middle" font-weight="normal" opacity="1.0">(not yet breathing)</text>
<rect x="560.0" y="60.0" width="200.0" height="44.0" rx="8" stroke="#bb8fce" fill="#ffffff" fill-opacity="0.04" stroke-width="2" opacity="1.0"/>
<text x="660.0" y="87.0" font-size="14" stroke="none" fill="#e8ecf1" text-anchor="middle" font-weight="bold" opacity="1.0">Aorta → body</text>
<path d="M125,540 L125,500 Q125,470 240,470 L296,488" stroke="#ff6b6b" fill="none" stroke-width="3" stroke-linejoin="round" stroke-linecap="round" opacity="1.0" stroke-dasharray="5 4" marker-end="url(#ah-ff6b6b)"/>
<path d="M240,470 Q260,400 380,410 Q480,420 516,455" stroke="#ff6b6b" fill="none" stroke-width="4" stroke-linejoin="round" stroke-linecap="round" opacity="1.0" marker-end="url(#ah-ff6b6b)"/>
<text x="40.0" y="470.0" font-size="13" stroke="none" fill="#ff6b6b" text-anchor="start" font-weight="bold" opacity="1.0">umbilical vein</text><text x="40.0" y="485.9" font-size="13" stroke="none" fill="#ff6b6b" text-anchor="start" font-weight="bold" opacity="1.0">(O₂-rich)</text>
<text x="330.0" y="398.0" font-size="13" stroke="none" fill="#f5b041" text-anchor="start" font-weight="bold" opacity="1.0">ductus venosus</text>
<text x="310.0" y="540.0" font-size="11" stroke="none" fill="#aab4c0" text-anchor="start" font-weight="normal" opacity="1.0">some blood through the liver</text>
<line x1="595.0" y1="440.0" x2="595.0" y2="354.0" stroke="#bb8fce" fill="none" stroke-width="3" stroke-linecap="round" opacity="1.0" marker-end="url(#ah-bb8fce)"/>
<line x1="516.0" y1="325.0" x2="454.0" y2="325.0" stroke="#bb8fce" fill="none" stroke-width="3" stroke-linecap="round" opacity="1.0" marker-end="url(#ah-bb8fce)"/>
<line x1="375.0" y1="300.0" x2="375.0" y2="208.0" stroke="#bb8fce" fill="none" stroke-width="3" stroke-linecap="round" opacity="1.0" marker-end="url(#ah-bb8fce)"/>
<line x1="296.0" y1="182.0" x2="194.0" y2="182.0" stroke="#bb8fce" fill="none" stroke-width="1.5" stroke-linecap="round" opacity="1.0" stroke-dasharray="4 4" marker-end="url(#ah-bb8fce)"/>
<text x="200.0" y="225.0" font-size="11" stroke="none" fill="#aab4c0" text-anchor="start" font-weight="normal" opacity="1.0">little flow</text>
<path d="M450,172 Q520,150 580,108" stroke="#bb8fce" fill="none" stroke-width="4" stroke-linejoin="round" stroke-linecap="round" opacity="1.0" marker-end="url(#ah-bb8fce)"/>
<text x="430.0" y="130.0" font-size="13" stroke="none" fill="#f5b041" text-anchor="start" font-weight="bold" opacity="1.0">ductus arteriosus</text>
<line x1="670.0" y1="325.0" x2="756.0" y2="325.0" stroke="#bb8fce" fill="none" stroke-width="4" stroke-linecap="round" opacity="1.0" marker-end="url(#ah-bb8fce)"/>
<text x="670.0" y="292.0" font-size="13" stroke="none" fill="#f5b041" text-anchor="start" font-weight="bold" opacity="1.0">foramen ovale</text>
<line x1="835.0" y1="350.0" x2="835.0" y2="386.0" stroke="#bb8fce" fill="none" stroke-width="3" stroke-linecap="round" opacity="1.0" marker-end="url(#ah-bb8fce)"/>
<path d="M910,410 Q930,200 764,82" stroke="#bb8fce" fill="none" stroke-width="3" stroke-linejoin="round" stroke-linecap="round" opacity="1.0" marker-end="url(#ah-bb8fce)"/>
<path d="M660,60 Q640,20 900,20 Q935,20 935,200 L935,630 L240,630 Q214,630 212,600" stroke="#5dade2" fill="none" stroke-width="4" stroke-linejoin="round" stroke-linecap="round" opacity="1.0" marker-end="url(#ah-5dade2)"/>
<text x="250.0" y="622.0" font-size="13" stroke="none" fill="#5dade2" text-anchor="start" font-weight="bold" opacity="1.0">umbilical arteries (from internal iliacs): O₂-poor blood back to the placenta</text>
<text x="560.0" y="508.0" font-size="13" stroke="none" fill="#aab4c0" text-anchor="start" font-weight="bold" opacity="1.0">After birth:</text>
<text x="560.0" y="527.0" font-size="12" stroke="none" fill="#e8ecf1" text-anchor="start" font-weight="normal" opacity="1.0">Umbilical vein → round ligament of liver</text>
<text x="560.0" y="545.0" font-size="12" stroke="none" fill="#e8ecf1" text-anchor="start" font-weight="normal" opacity="1.0">Ductus venosus → ligamentum venosum</text>
<text x="560.0" y="563.0" font-size="12" stroke="none" fill="#e8ecf1" text-anchor="start" font-weight="normal" opacity="1.0">Foramen ovale → fossa ovalis</text>
<text x="560.0" y="581.0" font-size="12" stroke="none" fill="#e8ecf1" text-anchor="start" font-weight="normal" opacity="1.0">Ductus arteriosus → ligamentum arteriosum</text>
<text x="560.0" y="599.0" font-size="12" stroke="none" fill="#e8ecf1" text-anchor="start" font-weight="normal" opacity="1.0">Umbilical arteries → medial umbilical ligaments</text>
<text x="20.0" y="30.0" font-size="18" stroke="none" fill="#e8ecf1" text-anchor="start" font-weight="bold" opacity="1.0">Fetal circulation: three shunts bypass the liver and lungs</text>
</svg>
