<svg xmlns="http://www.w3.org/2000/svg" viewBox="0 0 760 540" width="760" height="540" font-family="Segoe UI, Helvetica, Arial, sans-serif"><title>The conduction system of the heart</title><defs><marker id="ah-58d68d" viewBox="0 0 10 10" refX="8" refY="5" markerWidth="7" markerHeight="7" orient="auto-start-reverse"><path d="M0,0 L10,5 L0,10 z" fill="#58d68d"/></marker><marker id="ah-5dade2" viewBox="0 0 10 10" refX="8" refY="5" markerWidth="7" markerHeight="7" orient="auto-start-reverse"><path d="M0,0 L10,5 L0,10 z" fill="#5dade2"/></marker><marker id="ah-aab4c0" viewBox="0 0 10 10" refX="8" refY="5" markerWidth="7" markerHeight="7" orient="auto-start-reverse"><path d="M0,0 L10,5 L0,10 z" fill="#aab4c0"/></marker><marker id="ah-bb8fce" viewBox="0 0 10 10" refX="8" refY="5" markerWidth="7" markerHeight="7" orient="auto-start-reverse"><path d="M0,0 L10,5 L0,10 z" fill="#bb8fce"/></marker><marker id="ah-c9d1dc" viewBox="0 0 10 10" refX="8" refY="5" markerWidth="7" markerHeight="7" orient="auto-start-reverse"><path d="M0,0 L10,5 L0,10 z" fill="#c9d1dc"/></marker><marker id="ah-e8ecf1" viewBox="0 0 10 10" refX="8" refY="5" markerWidth="7" markerHeight="7" orient="auto-start-reverse"><path d="M0,0 L10,5 L0,10 z" fill="#e8ecf1"/></marker><marker id="ah-f1948a" viewBox="0 0 10 10" refX="8" refY="5" markerWidth="7" markerHeight="7" orient="auto-start-reverse"><path d="M0,0 L10,5 L0,10 z" fill="#f1948a"/></marker><marker id="ah-f4d03f" viewBox="0 0 10 10" refX="8" refY="5" markerWidth="7" markerHeight="7" orient="auto-start-reverse"><path d="M0,0 L10,5 L0,10 z" fill="#f4d03f"/></marker><marker id="ah-f5b041" viewBox="0 0 10 10" refX="8" refY="5" markerWidth="7" markerHeight="7" orient="auto-start-reverse"><path d="M0,0 L10,5 L0,10 z" fill="#f5b041"/></marker><marker id="ah-ff6b6b" viewBox="0 0 10 10" refX="8" refY="5" markerWidth="7" markerHeight="7" orient="auto-start-reverse"><path d="M0,0 L10,5 L0,10 z" fill="#ff6b6b"/></marker></defs>
<path d="M250,120 Q210,120 190,170 Q170,240 230,275 L330,275 Q360,200 340,140 Q310,110 250,120 Z" stroke="#5dade2" fill="#5dade2" fill-opacity="0.08" stroke-width="2.5" stroke-linejoin="round" stroke-linecap="round" opacity="1.0"/>
<path d="M420,120 Q470,100 520,140 Q560,200 520,270 L410,275 Q380,200 420,120 Z" stroke="#ff6b6b" fill="#ff6b6b" fill-opacity="0.08" stroke-width="2.5" stroke-linejoin="round" stroke-linecap="round" opacity="1.0"/>
<path d="M230,285 L360,285 L370,470 Q300,440 230,370 Q205,330 230,285 Z" stroke="#5dade2" fill="#5dade2" fill-opacity="0.08" stroke-width="2.5" stroke-linejoin="round" stroke-linecap="round" opacity="1.0"/>
<path d="M390,285 L525,285 Q575,360 520,430 Q460,500 385,500 L380,470 Z" stroke="#ff6b6b" fill="#ff6b6b" fill-opacity="0.08" stroke-width="2.5" stroke-linejoin="round" stroke-linecap="round" opacity="1.0"/>
<text x="255.0" y="205.0" font-size="18" stroke="none" fill="#aab4c0" text-anchor="middle" font-weight="bold" opacity="1.0">RA</text>
<text x="470.0" y="205.0" font-size="18" stroke="none" fill="#aab4c0" text-anchor="middle" font-weight="bold" opacity="1.0">LA</text>
<text x="290.0" y="350.0" font-size="18" stroke="none" fill="#aab4c0" text-anchor="middle" font-weight="bold" opacity="1.0">RV</text>
<text x="460.0" y="380.0" font-size="18" stroke="none" fill="#aab4c0" text-anchor="middle" font-weight="bold" opacity="1.0">LV</text>
<circle cx="245.0" cy="140.0" r="13.0" stroke="#f4d03f" fill="#f4d03f" fill-opacity="0.5" stroke-width="3" opacity="1.0"/>
<path d="M245,140 Q300,180 350,262" stroke="#f4d03f" fill="none" stroke-width="2" stroke-linejoin="round" stroke-linecap="round" opacity="0.8" stroke-dasharray="4 5"/>
<path d="M245,140 Q360,110 440,170" stroke="#f4d03f" fill="none" stroke-width="2" stroke-linejoin="round" stroke-linecap="round" opacity="0.8" stroke-dasharray="4 5"/>
<circle cx="352.0" cy="262.0" r="10.0" stroke="#f4d03f" fill="#f4d03f" fill-opacity="0.5" stroke-width="3" opacity="1.0"/>
<path d="M355,272 L372,300" stroke="#f4d03f" fill="none" stroke-width="5" stroke-linejoin="round" stroke-linecap="round" opacity="1.0"/>
<path d="M372,300 Q365,380 375,470" stroke="#f4d03f" fill="none" stroke-width="3.5" stroke-linejoin="round" stroke-linecap="round" opacity="1.0"/>
<path d="M375,300 Q392,380 392,470" stroke="#f4d03f" fill="none" stroke-width="3.5" stroke-linejoin="round" stroke-linecap="round" opacity="1.0"/>
<path d="M375,470 Q300,440 245,360 M375,470 Q280,420 250,300" stroke="#f4d03f" fill="none" stroke-width="1.8" stroke-linejoin="round" stroke-linecap="round" opacity="0.9"/>
<path d="M392,470 Q470,470 520,410 M392,480 Q500,460 535,340" stroke="#f4d03f" fill="none" stroke-width="1.8" stroke-linejoin="round" stroke-linecap="round" opacity="0.9"/>
<text x="60.0" y="90.0" font-size="13" stroke="none" fill="#e8ecf1" text-anchor="start" font-weight="normal" opacity="1.0">1  SA node - the pacemaker, in the right atrial wall near the SVC opening</text>
<text x="60.0" y="112.0" font-size="13" stroke="none" fill="#e8ecf1" text-anchor="start" font-weight="normal" opacity="1.0">2  impulse spreads over both atria (P wave)</text>
<text x="560.0" y="250.0" font-size="13" stroke="none" fill="#e8ecf1" text-anchor="start" font-weight="normal" opacity="1.0">3  AV node: ~0.1 s delay</text><text x="560.0" y="265.9" font-size="13" stroke="none" fill="#e8ecf1" text-anchor="start" font-weight="normal" opacity="1.0">    lets the atria finish</text><text x="560.0" y="281.7" font-size="13" stroke="none" fill="#e8ecf1" text-anchor="start" font-weight="normal" opacity="1.0">    emptying</text>
<text x="560.0" y="320.0" font-size="13" stroke="none" fill="#e8ecf1" text-anchor="start" font-weight="normal" opacity="1.0">4  AV bundle (bundle of His):</text><text x="560.0" y="335.9" font-size="13" stroke="none" fill="#e8ecf1" text-anchor="start" font-weight="normal" opacity="1.0">    the only normal electrical</text><text x="560.0" y="351.7" font-size="13" stroke="none" fill="#e8ecf1" text-anchor="start" font-weight="normal" opacity="1.0">    link atria → ventricles</text>
<text x="560.0" y="400.0" font-size="13" stroke="none" fill="#e8ecf1" text-anchor="start" font-weight="normal" opacity="1.0">5  right &amp; left bundle</text><text x="560.0" y="415.9" font-size="13" stroke="none" fill="#e8ecf1" text-anchor="start" font-weight="normal" opacity="1.0">    branches in the</text><text x="560.0" y="431.7" font-size="13" stroke="none" fill="#e8ecf1" text-anchor="start" font-weight="normal" opacity="1.0">    interventricular septum</text>
<text x="560.0" y="470.0" font-size="13" stroke="none" fill="#e8ecf1" text-anchor="start" font-weight="normal" opacity="1.0">6  Purkinje fibres:</text><text x="560.0" y="485.9" font-size="13" stroke="none" fill="#e8ecf1" text-anchor="start" font-weight="normal" opacity="1.0">    apex first, then up the</text><text x="560.0" y="501.7" font-size="13" stroke="none" fill="#e8ecf1" text-anchor="start" font-weight="normal" opacity="1.0">    walls (QRS)</text>
<text x="60.0" y="520.0" font-size="12" stroke="none" fill="#aab4c0" text-anchor="start" font-weight="normal" opacity="1.0">Everything drawn yellow is modified cardiac muscle, not nerve.</text>
<text x="20.0" y="36.0" font-size="18" stroke="none" fill="#e8ecf1" text-anchor="start" font-weight="bold" opacity="1.0">Conduction system</text>
</svg>
