<svg xmlns="http://www.w3.org/2000/svg" viewBox="0 0 820 440" width="820" height="440">
  <title>Receptors in the skin</title>
  <path d="M 20 130 Q 60 190 100 130 Q 140 190 180 130 Q 220 190 260 130 Q 300 190 340 130 Q 380 190 420 130 Q 460 190 500 130 Q 540 190 580 130 Q 620 190 660 130 Q 700 190 740 130 L 800 130 L 800 80 L 20 80 Z" stroke="#9aa4b1" stroke-width="1.5" fill="#c9a27e" fill-opacity="0.25" stroke-linejoin="round" stroke-linecap="round"/>
  <rect x="20.0" y="130.0" width="780.0" height="190.0" rx="0" stroke="#9aa4b1" stroke-width="1" fill="#d98e8e" fill-opacity="0.1"/>
  <rect x="20.0" y="320.0" width="780.0" height="100.0" rx="0" stroke="#9aa4b1" stroke-width="1" fill="#e8d27a" fill-opacity="0.12"/>
  <text x="790.0" y="105.0" fill="#e6e9ee" font-size="14" text-anchor="end" font-family="Segoe UI, Helvetica, Arial, sans-serif" font-weight="bold">Epidermis</text>
  <text x="790.0" y="230.0" fill="#e6e9ee" font-size="14" text-anchor="end" font-family="Segoe UI, Helvetica, Arial, sans-serif" font-weight="bold">Dermis</text>
  <text x="790.0" y="370.0" fill="#e6e9ee" font-size="14" text-anchor="end" font-family="Segoe UI, Helvetica, Arial, sans-serif" font-weight="bold">Hypodermis</text>
  <path d="M 90 320 L 90 170 L 80 110 M 90 170 L 102 105 M 90 195 L 70 135" stroke="#ef7a7a" stroke-width="2" fill="none" stroke-linejoin="round" stroke-linecap="round"/>
  <text x="90.0" y="20.0" fill="#ef7a7a" font-size="13" text-anchor="middle" font-family="Segoe UI, Helvetica, Arial, sans-serif">Free nerve endings</text>
  <text x="90.0" y="36.9" fill="#ef7a7a" font-size="13" text-anchor="middle" font-family="Segoe UI, Helvetica, Arial, sans-serif">pain (nociceptors),</text>
  <text x="90.0" y="53.8" fill="#ef7a7a" font-size="13" text-anchor="middle" font-family="Segoe UI, Helvetica, Arial, sans-serif">temperature</text>
  <ellipse cx="205.0" cy="156.0" rx="7.0" ry="4.0" stroke="#f2b24c" stroke-width="2" fill="#f2b24c" fill-opacity="0.6"/>
  <ellipse cx="220.0" cy="156.0" rx="7.0" ry="4.0" stroke="#f2b24c" stroke-width="2" fill="#f2b24c" fill-opacity="0.6"/>
  <ellipse cx="235.0" cy="156.0" rx="7.0" ry="4.0" stroke="#f2b24c" stroke-width="2" fill="#f2b24c" fill-opacity="0.6"/>
  <path d="M 220 320 L 220 164 M 220 170 L 205 160 M 220 170 L 235 160" stroke="#f2b24c" stroke-width="2" fill="none" stroke-linejoin="round" stroke-linecap="round"/>
  <text x="250.0" y="20.0" fill="#f2b24c" font-size="13" text-anchor="middle" font-family="Segoe UI, Helvetica, Arial, sans-serif">Merkel discs</text>
  <text x="250.0" y="36.9" fill="#f2b24c" font-size="13" text-anchor="middle" font-family="Segoe UI, Helvetica, Arial, sans-serif">light touch,</text>
  <text x="250.0" y="53.8" fill="#f2b24c" font-size="13" text-anchor="middle" font-family="Segoe UI, Helvetica, Arial, sans-serif">slowly adapting</text>
  <ellipse cx="420.0" cy="154.0" rx="9.0" ry="15.0" stroke="#5ab4f0" stroke-width="2" fill="#5ab4f0" fill-opacity="0.35"/>
  <line x1="413.0" y1="144.0" x2="427.0" y2="147.0" stroke="#5ab4f0" stroke-width="1" stroke-linecap="round"/>
  <line x1="413.0" y1="150.0" x2="427.0" y2="153.0" stroke="#5ab4f0" stroke-width="1" stroke-linecap="round"/>
  <line x1="413.0" y1="156.0" x2="427.0" y2="159.0" stroke="#5ab4f0" stroke-width="1" stroke-linecap="round"/>
  <line x1="413.0" y1="162.0" x2="427.0" y2="165.0" stroke="#5ab4f0" stroke-width="1" stroke-linecap="round"/>
  <path d="M 420 320 L 420 169" stroke="#5ab4f0" stroke-width="2" fill="none" stroke-linejoin="round" stroke-linecap="round"/>
  <text x="420.0" y="20.0" fill="#5ab4f0" font-size="13" text-anchor="middle" font-family="Segoe UI, Helvetica, Arial, sans-serif">Meissner corpuscle</text>
  <text x="420.0" y="36.9" fill="#5ab4f0" font-size="13" text-anchor="middle" font-family="Segoe UI, Helvetica, Arial, sans-serif">light touch, rapidly</text>
  <text x="420.0" y="53.8" fill="#5ab4f0" font-size="13" text-anchor="middle" font-family="Segoe UI, Helvetica, Arial, sans-serif">adapting (dermal papilla)</text>
  <ellipse cx="560.0" cy="365.0" rx="48.0" ry="32.0" stroke="#7ccf86" stroke-width="1.5" fill="#7ccf86" fill-opacity="0.07"/>
  <ellipse cx="560.0" cy="365.0" rx="37.5" ry="25.0" stroke="#7ccf86" stroke-width="1.5" fill="#7ccf86" fill-opacity="0.07"/>
  <ellipse cx="560.0" cy="365.0" rx="27.0" ry="18.0" stroke="#7ccf86" stroke-width="1.5" fill="#7ccf86" fill-opacity="0.07"/>
  <ellipse cx="560.0" cy="365.0" rx="16.5" ry="11.0" stroke="#7ccf86" stroke-width="1.5" fill="#7ccf86" fill-opacity="0.07"/>
  <ellipse cx="560.0" cy="365.0" rx="7.5" ry="5.0" stroke="#7ccf86" stroke-width="1.5" fill="#7ccf86" fill-opacity="0.07"/>
  <path d="M 560 365 L 560 270 L 520 270 L 520 320" stroke="#7ccf86" stroke-width="2" fill="none" stroke-linejoin="round" stroke-linecap="round"/>
  <text x="600.0" y="255.0" fill="#7ccf86" font-size="13" text-anchor="start" font-family="Segoe UI, Helvetica, Arial, sans-serif">Pacinian corpuscle</text>
  <text x="600.0" y="271.9" fill="#7ccf86" font-size="13" text-anchor="start" font-family="Segoe UI, Helvetica, Arial, sans-serif">deep pressure, vibration;</text>
  <text x="600.0" y="288.8" fill="#7ccf86" font-size="13" text-anchor="start" font-family="Segoe UI, Helvetica, Arial, sans-serif">onion-like lamellae</text>
  <path d="M 690 320 L 690 160 L 680 120 M 690 160 L 700 120" stroke="#4fd1c5" stroke-width="2" fill="none" stroke-linejoin="round" stroke-linecap="round"/>
  <text x="650.0" y="20.0" fill="#4fd1c5" font-size="13" text-anchor="middle" font-family="Segoe UI, Helvetica, Arial, sans-serif">Thermoreceptors</text>
  <text x="650.0" y="36.9" fill="#4fd1c5" font-size="13" text-anchor="middle" font-family="Segoe UI, Helvetica, Arial, sans-serif">warm and cold</text>
  <text x="650.0" y="53.8" fill="#4fd1c5" font-size="13" text-anchor="middle" font-family="Segoe UI, Helvetica, Arial, sans-serif">(free endings)</text>
</svg>
