<svg xmlns="http://www.w3.org/2000/svg" viewBox="0 0 820 300" width="820" height="300">
  <title>Parts of a neuron</title>
  <line x1="170.0" y1="150.0" x2="92.1" y2="105.0" stroke="#5ab4f0" stroke-width="3" stroke-linecap="round"/>
  <line x1="92.1" y1="105.0" x2="81.1" y2="85.9" stroke="#5ab4f0" stroke-width="2" stroke-linecap="round"/>
  <line x1="92.1" y1="105.0" x2="70.1" y2="105.0" stroke="#5ab4f0" stroke-width="2" stroke-linecap="round"/>
  <line x1="170.0" y1="150.0" x2="70.0" y2="150.0" stroke="#5ab4f0" stroke-width="3" stroke-linecap="round"/>
  <line x1="70.0" y1="150.0" x2="50.9" y2="139.0" stroke="#5ab4f0" stroke-width="2" stroke-linecap="round"/>
  <line x1="70.0" y1="150.0" x2="50.9" y2="161.0" stroke="#5ab4f0" stroke-width="2" stroke-linecap="round"/>
  <line x1="170.0" y1="150.0" x2="96.4" y2="192.5" stroke="#5ab4f0" stroke-width="3" stroke-linecap="round"/>
  <line x1="96.4" y1="192.5" x2="74.4" y2="192.5" stroke="#5ab4f0" stroke-width="2" stroke-linecap="round"/>
  <line x1="96.4" y1="192.5" x2="85.4" y2="211.6" stroke="#5ab4f0" stroke-width="2" stroke-linecap="round"/>
  <line x1="170.0" y1="150.0" x2="132.5" y2="85.0" stroke="#5ab4f0" stroke-width="3" stroke-linecap="round"/>
  <line x1="132.5" y1="85.0" x2="132.5" y2="63.0" stroke="#5ab4f0" stroke-width="2" stroke-linecap="round"/>
  <line x1="132.5" y1="85.0" x2="113.4" y2="74.0" stroke="#5ab4f0" stroke-width="2" stroke-linecap="round"/>
  <line x1="170.0" y1="150.0" x2="132.5" y2="215.0" stroke="#5ab4f0" stroke-width="3" stroke-linecap="round"/>
  <line x1="132.5" y1="215.0" x2="113.4" y2="226.0" stroke="#5ab4f0" stroke-width="2" stroke-linecap="round"/>
  <line x1="132.5" y1="215.0" x2="132.5" y2="237.0" stroke="#5ab4f0" stroke-width="2" stroke-linecap="round"/>
  <line x1="170.0" y1="150.0" x2="159.6" y2="90.9" stroke="#5ab4f0" stroke-width="3" stroke-linecap="round"/>
  <line x1="159.6" y1="90.9" x2="167.1" y2="70.2" stroke="#5ab4f0" stroke-width="2" stroke-linecap="round"/>
  <line x1="159.6" y1="90.9" x2="145.4" y2="74.1" stroke="#5ab4f0" stroke-width="2" stroke-linecap="round"/>
  <line x1="170.0" y1="150.0" x2="159.6" y2="209.1" stroke="#5ab4f0" stroke-width="3" stroke-linecap="round"/>
  <line x1="159.6" y1="209.1" x2="145.4" y2="225.9" stroke="#5ab4f0" stroke-width="2" stroke-linecap="round"/>
  <line x1="159.6" y1="209.1" x2="167.1" y2="229.8" stroke="#5ab4f0" stroke-width="2" stroke-linecap="round"/>
  <circle cx="170.0" cy="150.0" r="34.0" stroke="#e6e9ee" stroke-width="2" fill="#3a4a5c" fill-opacity="1"/>
  <circle cx="166.0" cy="148.0" r="11.0" stroke="#e6e9ee" stroke-width="1.5" fill="#6d86a3" fill-opacity="1"/>
  <path d="M 200.0 136.0 L 232.0 146.0 L 232.0 154.0 L 200.0 164.0 Z" stroke="#e6e9ee" stroke-width="2" fill="#3a4a5c" stroke-linejoin="round" stroke-linecap="round"/>
  <line x1="232.0" y1="150.0" x2="690.0" y2="150.0" stroke="#e6e9ee" stroke-width="3" stroke-linecap="round"/>
  <rect x="248.0" y="138.0" width="70.0" height="24.0" rx="11" stroke="#f2b24c" stroke-width="2" fill="#f2b24c" fill-opacity="0.25"/>
  <rect x="330.0" y="138.0" width="70.0" height="24.0" rx="11" stroke="#f2b24c" stroke-width="2" fill="#f2b24c" fill-opacity="0.25"/>
  <rect x="412.0" y="138.0" width="70.0" height="24.0" rx="11" stroke="#f2b24c" stroke-width="2" fill="#f2b24c" fill-opacity="0.25"/>
  <rect x="494.0" y="138.0" width="70.0" height="24.0" rx="11" stroke="#f2b24c" stroke-width="2" fill="#f2b24c" fill-opacity="0.25"/>
  <rect x="576.0" y="138.0" width="70.0" height="24.0" rx="11" stroke="#f2b24c" stroke-width="2" fill="#f2b24c" fill-opacity="0.25"/>
  <line x1="690.0" y1="150.0" x2="745.0" y2="105.0" stroke="#e6e9ee" stroke-width="2" stroke-linecap="round"/>
  <circle cx="750.0" cy="105.0" r="7.0" stroke="#7ccf86" stroke-width="2" fill="#7ccf86" fill-opacity="0.35"/>
  <line x1="690.0" y1="150.0" x2="745.0" y2="135.0" stroke="#e6e9ee" stroke-width="2" stroke-linecap="round"/>
  <circle cx="750.0" cy="135.0" r="7.0" stroke="#7ccf86" stroke-width="2" fill="#7ccf86" fill-opacity="0.35"/>
  <line x1="690.0" y1="150.0" x2="745.0" y2="165.0" stroke="#e6e9ee" stroke-width="2" stroke-linecap="round"/>
  <circle cx="750.0" cy="165.0" r="7.0" stroke="#7ccf86" stroke-width="2" fill="#7ccf86" fill-opacity="0.35"/>
  <line x1="690.0" y1="150.0" x2="745.0" y2="195.0" stroke="#e6e9ee" stroke-width="2" stroke-linecap="round"/>
  <circle cx="750.0" cy="195.0" r="7.0" stroke="#7ccf86" stroke-width="2" fill="#7ccf86" fill-opacity="0.35"/>
  <text x="60.0" y="40.0" fill="#5ab4f0" font-size="16" text-anchor="start" font-family="Segoe UI, Helvetica, Arial, sans-serif" font-weight="bold">Dendrites</text>
  <text x="60.0" y="58.0" fill="#9aa4b1" font-size="13" text-anchor="start" font-family="Segoe UI, Helvetica, Arial, sans-serif">receive input (graded potentials)</text>
  <text x="170.0" y="225.0" fill="#e6e9ee" font-size="16" text-anchor="middle" font-family="Segoe UI, Helvetica, Arial, sans-serif" font-weight="bold">Cell body (soma)</text>
  <text x="170.0" y="243.0" fill="#9aa4b1" font-size="13" text-anchor="middle" font-family="Segoe UI, Helvetica, Arial, sans-serif">nucleus, integrates input</text>
  <line x1="250.0" y1="95.0" x2="220.0" y2="140.0" stroke="#9aa4b1" stroke-width="1.5" stroke-linecap="round"/>
  <path d="M 220.0 140.0 L 221.7 131.2 L 227.5 135.0 Z" stroke="#9aa4b1" stroke-width="1" fill="#9aa4b1" stroke-linejoin="round" stroke-linecap="round"/>
  <text x="250.0" y="88.0" fill="#f28cc0" font-size="14" text-anchor="start" font-family="Segoe UI, Helvetica, Arial, sans-serif">Axon hillock - trigger zone</text>
  <text x="420.0" y="110.0" fill="#f2b24c" font-size="14" text-anchor="middle" font-family="Segoe UI, Helvetica, Arial, sans-serif">Myelin sheath (Schwann cells)</text>
  <line x1="475.0" y1="190.0" x2="488.0" y2="154.0" stroke="#9aa4b1" stroke-width="1.5" stroke-linecap="round"/>
  <path d="M 488.0 154.0 L 488.5 163.0 L 481.9 160.6 Z" stroke="#9aa4b1" stroke-width="1" fill="#9aa4b1" stroke-linejoin="round" stroke-linecap="round"/>
  <text x="475.0" y="208.0" fill="#e6e9ee" font-size="14" text-anchor="middle" font-family="Segoe UI, Helvetica, Arial, sans-serif">Node of Ranvier</text>
  <text x="500.0" y="240.0" fill="#e6e9ee" font-size="14" text-anchor="middle" font-family="Segoe UI, Helvetica, Arial, sans-serif">Axon - conducts action potentials away from the soma</text>
  <text x="800.0" y="50.0" fill="#7ccf86" font-size="14" text-anchor="end" font-family="Segoe UI, Helvetica, Arial, sans-serif">Axon terminals</text>
  <text x="800.0" y="68.0" fill="#9aa4b1" font-size="13" text-anchor="end" font-family="Segoe UI, Helvetica, Arial, sans-serif">release neurotransmitter</text>
  <line x1="330.0" y1="275.0" x2="640.0" y2="275.0" stroke="#9aa4b1" stroke-width="2" stroke-linecap="round"/>
  <path d="M 640.0 275.0 L 631.7 278.5 L 631.7 271.5 Z" stroke="#9aa4b1" stroke-width="1" fill="#9aa4b1" stroke-linejoin="round" stroke-linecap="round"/>
  <text x="485.0" y="295.0" fill="#9aa4b1" font-size="12" text-anchor="middle" font-family="Segoe UI, Helvetica, Arial, sans-serif">direction of signal</text>
</svg>
